<svg class="w-[74px] h-[34px] lg:w-[82px] lg:h-[40px]" viewBox="0 0 82 40" fill="none" xmlns="http://www.w3.org/2000/svg"><g clip-path="url(#clip0_3138_1351)"><g clip-path="url(#clip1_3138_1351)"><path d="M8.67147 18.3466C5.69972 14.337 2.56246 15.7274 1.11755 18.3682C-0.32736 21.009 -0.910678 24.5898 2.86182 26.3818C6.63432 28.1738 14.3237 25.9746 8.67147 18.3466Z" fill="#F1E4FA"></path><path d="M5.54678 29.2587C0.743127 28.7443 2.03227 34.0355 4.05725 35.5227C7.18964 37.8235 10.3537 29.7715 5.54678 29.2587Z" fill="#F1E4FA"></path><path d="M17.4363 39.1863C17.4369 39.2931 17.4159 39.3988 17.3747 39.4975C17.3335 39.5961 17.2728 39.6858 17.1962 39.7611C17.1196 39.8365 17.0286 39.8962 16.9285 39.9366C16.8283 39.977 16.7211 39.9975 16.6129 39.9967C16.3957 39.9941 16.1883 39.9078 16.0347 39.7564C15.8812 39.605 15.7937 39.4004 15.791 39.1863V27.8623C15.794 27.6484 15.8815 27.444 16.035 27.2928C16.1885 27.1416 16.3959 27.0554 16.6129 27.0527C16.7209 27.0521 16.828 27.0726 16.9279 27.1131C17.0279 27.1535 17.1187 27.2131 17.1951 27.2884C17.2716 27.3637 17.3321 27.4532 17.3732 27.5517C17.4143 27.6502 17.4352 27.7558 17.4347 27.8623L17.4363 39.1863Z" fill="#F1E4FA"></path><path d="M21.013 27.9788L21.0844 27.9084C21.3617 27.6346 21.6913 27.4177 22.0543 27.2705C22.4172 27.1233 22.8062 27.0486 23.1986 27.0508H26.2004C27.6814 27.0674 29.0966 27.6565 30.1416 28.6916C31.1865 29.7266 31.7776 31.1248 31.7878 32.5852V34.4604C31.7779 35.9213 31.1866 37.3199 30.1413 38.3552C29.096 39.3904 27.6802 39.9795 26.1988 39.9956H23.197C22.8046 39.9978 22.4158 39.9231 22.0529 39.7761C21.6899 39.629 21.3602 39.4124 21.0828 39.1388L21.009 39.0508C20.4885 38.5143 20.202 37.798 20.2106 37.0556V29.9932C20.2073 29.253 20.4932 28.5399 21.009 28.002L21.013 27.9788ZM22.2105 29.1132C21.9923 29.3552 21.8746 29.6695 21.8811 29.9932V37.0508C21.8747 37.3746 21.9923 37.6888 22.2105 37.9308L22.2567 37.9764C22.3776 38.1022 22.5235 38.2021 22.6853 38.2698C22.8471 38.3375 23.0213 38.3716 23.197 38.37H26.1988C26.7157 38.3701 27.2275 38.2681 27.7038 38.0701C28.1802 37.8721 28.6116 37.5821 28.9726 37.2172H28.9961C29.7339 36.4849 30.1478 35.4943 30.1473 34.462V32.5868C30.1476 31.5543 29.7338 30.5636 28.9961 29.8308H28.9726C28.6122 29.465 28.1811 29.1741 27.7049 28.9751C27.2286 28.7762 26.7168 28.6732 26.1996 28.6724H23.1978C23.022 28.6708 22.8477 28.705 22.6859 28.7728C22.5241 28.8407 22.3783 28.9408 22.2575 29.0668L22.2105 29.1132Z" fill="#F1E4FA"></path><path d="M35.2849 32.7023H42.7041C42.9207 32.709 43.1262 32.7985 43.277 32.9519C43.4278 33.1054 43.5121 33.3107 43.5121 33.5243C43.5121 33.738 43.4278 33.9433 43.277 34.0967C43.1262 34.2501 42.9207 34.3397 42.7041 34.3463H35.2849V34.4623C35.2906 35.4945 35.7073 36.4831 36.4454 37.215C37.1834 37.947 38.1835 38.3636 39.2302 38.3751H43.4805C43.6987 38.3751 43.908 38.4606 44.0622 38.6127C44.2165 38.7649 44.3032 38.9712 44.3032 39.1863C44.3032 39.4015 44.2165 39.6078 44.0622 39.7599C43.908 39.9121 43.6987 39.9975 43.4805 39.9975H39.2302C37.7442 39.9898 36.3214 39.4043 35.2705 38.3682C34.2197 37.3322 33.6258 35.9292 33.6177 34.4639V32.5871C33.6256 31.1217 34.2194 29.7185 35.2703 28.6823C36.3211 27.6461 37.7441 27.0605 39.2302 27.0527H43.4805C43.6987 27.0527 43.908 27.1382 44.0622 27.2903C44.2165 27.4425 44.3032 27.6488 44.3032 27.8639C44.3032 28.0791 44.2165 28.2854 44.0622 28.4375C43.908 28.5897 43.6987 28.6751 43.4805 28.6751H39.2302C38.1834 28.6867 37.1831 29.1034 36.4451 29.8355C35.707 30.5676 35.2903 31.5565 35.2849 32.5887V32.7023Z" fill="#F1E4FA"></path><path d="M46.76 32.7023H54.1792C54.3958 32.709 54.6013 32.7985 54.7521 32.9519C54.9029 33.1054 54.9872 33.3107 54.9872 33.5243C54.9872 33.738 54.9029 33.9433 54.7521 34.0967C54.6013 34.2501 54.3958 34.3397 54.1792 34.3463H46.76V34.4623C46.7657 35.4943 47.1823 36.4828 47.9202 37.2147C48.658 37.9467 49.6579 38.3634 50.7045 38.3751H54.9556C55.1738 38.3751 55.3831 38.4606 55.5373 38.6127C55.6916 38.7649 55.7783 38.9712 55.7783 39.1863C55.7783 39.4015 55.6916 39.6078 55.5373 39.7599C55.3831 39.9121 55.1738 39.9975 54.9556 39.9975H50.7053C49.2193 39.9898 47.7965 39.4043 46.7456 38.3682C45.6948 37.3322 45.1009 35.9292 45.0928 34.4639V32.5871C45.1007 31.1217 45.6945 29.7185 46.7454 28.6823C47.7962 27.6461 49.2192 27.0605 50.7053 27.0527H54.9564C55.1746 27.0527 55.3839 27.1382 55.5381 27.2903C55.6924 27.4425 55.7791 27.6488 55.7791 27.8639C55.7791 28.0791 55.6924 28.2854 55.5381 28.4375C55.3839 28.5897 55.1746 28.6751 54.9564 28.6751H50.7053C49.6585 28.6867 48.6582 29.1034 47.9202 29.8355C47.1821 30.5676 46.7654 31.5565 46.76 32.5887V32.7023Z" fill="#F1E4FA"></path><path d="M81.5165 39.1247L80.3806 29.2847C80.3659 28.9683 80.2851 28.6582 80.1432 28.374C80.0014 28.0898 79.8015 27.8375 79.5562 27.6329C79.3109 27.4284 79.0255 27.2759 78.7177 27.1852C78.4099 27.0944 78.0864 27.0673 77.7675 27.1055C77.2555 27.1768 76.7678 27.3659 76.3437 27.6575C76.1795 27.7689 76.0275 27.8968 75.8902 28.0391C75.7474 28.1911 69.0631 36.8567 67.8543 38.4223H59.266C59.1386 38.4256 59.0119 38.4033 58.8936 38.3568C58.7752 38.3102 58.6677 38.2404 58.5776 38.1515C58.4875 38.0627 58.4167 37.9567 58.3695 37.84C58.3223 37.7233 58.2997 37.5983 58.303 37.4727C58.3105 37.3137 58.3571 37.1589 58.439 37.0218C58.5209 36.8846 58.6354 36.7692 58.7727 36.6855L67.344 31.7295C67.7192 31.5038 68.0301 31.1879 68.2476 30.8114C68.4651 30.4349 68.5821 30.01 68.5877 29.5767C68.5897 29.2468 68.5256 28.9197 68.3991 28.6141C68.2727 28.3086 68.0864 28.0307 67.8509 27.7963C67.6154 27.5618 67.3354 27.3755 67.0268 27.2479C66.7182 27.1203 66.3871 27.054 66.0524 27.0527H57.6215C57.4098 27.0527 57.2067 27.1357 57.057 27.2833C56.9073 27.4309 56.8232 27.6312 56.8232 27.8399C56.8232 28.0487 56.9073 28.2489 57.057 28.3966C57.2067 28.5442 57.4098 28.6271 57.6215 28.6271H66.0524C66.3039 28.6332 66.543 28.736 66.7185 28.9136C66.8941 29.0912 66.9922 29.3295 66.9919 29.5775C66.9976 29.739 66.9565 29.8987 66.8734 30.038C66.7904 30.1773 66.6688 30.2903 66.523 30.3639L57.9744 35.3199C57.4893 35.5969 57.1107 36.0243 56.8974 36.5354C56.684 37.0466 56.648 37.613 56.7949 38.1464C56.9417 38.6799 57.2632 39.1505 57.7094 39.4851C58.1556 39.8198 58.7014 39.9996 59.2619 39.9967H67.9509C68.1843 39.9788 68.4111 39.9119 68.6162 39.8005C68.8213 39.6892 69 39.536 69.1402 39.3511C70.4083 37.7031 77.1087 29.0055 77.1988 28.9303C77.3104 28.8389 77.4391 28.7699 77.5776 28.7271C77.6998 28.6883 77.8273 28.6683 77.9557 28.6679C78.4725 28.6679 78.7313 28.9687 78.793 29.4735L79.4558 35.2335H74.5434C74.3317 35.2335 74.1286 35.3165 73.9789 35.4641C73.8292 35.6117 73.7451 35.812 73.7451 36.0207C73.7451 36.2295 73.8292 36.4297 73.9789 36.5774C74.1286 36.725 74.3317 36.8079 74.5434 36.8079H79.6399L79.9263 39.3071C79.9383 39.4099 79.9706 39.5093 80.0215 39.5997C80.0724 39.6901 80.1409 39.7698 80.223 39.8341C80.3051 39.8985 80.3992 39.9462 80.5001 39.9747C80.6009 40.0031 80.7064 40.0117 80.8106 39.9999C80.9148 39.9882 81.0157 39.9563 81.1074 39.9061C81.199 39.8559 81.2798 39.7884 81.3451 39.7074C81.4103 39.6264 81.4587 39.5336 81.4876 39.4342C81.5164 39.3347 81.5251 39.2307 81.5132 39.1279L81.5165 39.1247Z" fill="#F1E4FA"></path><path d="M33.388 12.4841C33.388 7.77366 27.5297 3.95605 20.3043 3.95605C14.8841 3.95605 10.4683 6.26246 8.46762 9.07606C7.74365 10.0862 7.39442 11.3113 7.47863 12.5454C7.56285 13.7796 8.07538 14.9475 8.93006 15.8529C10.508 17.6617 11.1473 18.7561 12.4965 21.9561C13.47 24.2681 15.5672 24.9681 17.8981 24.9849C19.8168 24.9985 21.6008 23.6857 22.7415 22.3617C24.2502 20.8237 26.0909 19.6406 28.1268 18.9001C31.4458 17.8209 33.388 15.5369 33.388 12.4841Z" fill="#F1E4FA"></path><path d="M25.4484 12.2468C25.2861 12.078 23.7666 11.2148 23.2303 10.8356C22.0804 10.1035 20.8719 9.46515 19.6168 8.92683C19.2655 8.78603 18.9515 8.55403 18.61 8.38283C18.1305 8.14283 17.6446 7.91563 17.1562 7.69483C17.042 7.62007 16.9086 7.57896 16.7717 7.57631C16.6347 7.57366 16.4998 7.60959 16.3827 7.67988C16.2657 7.75017 16.1715 7.8519 16.111 7.97315C16.0506 8.0944 16.0264 8.23014 16.0414 8.36443C16.0268 8.74283 16.0844 17.3372 16.0739 17.9516C16.0506 18.1392 16.0725 18.3296 16.1379 18.5073C16.2034 18.6849 16.3104 18.8448 16.4504 18.974C16.5903 19.1031 16.7593 19.1978 16.9434 19.2504C17.1275 19.3029 17.3216 19.3119 17.5099 19.2764C17.8811 19.2003 18.2336 19.0533 18.5475 18.8436C19.1613 18.5207 19.7526 18.158 20.3178 17.758C21.1761 17.1764 24.8091 13.7628 25.3478 13.3964C25.4439 13.3373 25.5247 13.2569 25.5839 13.1617C25.643 13.0664 25.6789 12.9589 25.6887 12.8476C25.6985 12.7363 25.6818 12.6243 25.6401 12.5205C25.5984 12.4166 25.5327 12.3238 25.4484 12.2492" fill="#561F80"></path></g></g><defs><clipPath id="clip0_3138_1351"><rect width="81.5095" height="40" fill="white"></rect></clipPath><clipPath id="clip1_3138_1351"><rect width="81.5095" height="40" fill="white"></rect></clipPath></defs></svg>