<svg width="30" height="25" viewBox="0 0 30 25" fill="none" xmlns="http://www.w3.org/2000/svg">
<path d="M30 9.98279C30 4.60717 23.2199 0.25 14.8575 0.25C8.58486 0.25 3.47388 2.88186 1.15891 6.09177C0.321047 7.2445 -0.0831557 8.64258 0.0142486 10.051C0.111653 11.4594 0.704722 12.7922 1.69376 13.8255C3.52024 15.8914 4.26044 17.1369 5.82197 20.7936C6.95048 23.4319 9.37556 24.2314 12.0739 24.2499C14.2945 24.2652 16.3594 22.7669 17.6792 21.2557C19.4254 19.5005 21.5557 18.1502 23.912 17.3051C27.7521 16.0733 30 13.4672 30 9.98279Z" fill="#561F80"/>
<path d="M20.8127 9.71391C20.6214 9.52149 18.8661 8.53606 18.246 8.10372C16.9145 7.26776 15.515 6.53888 14.0615 5.92433C13.655 5.76331 13.2915 5.49844 12.8966 5.3036C12.3418 5.02987 11.7796 4.77063 11.2141 4.51863C11.0821 4.43336 10.9277 4.38647 10.7692 4.38346C10.6107 4.38044 10.4546 4.42144 10.3192 4.50164C10.1838 4.58183 10.0747 4.6979 10.0048 4.83623C9.93481 4.97457 9.90685 5.12943 9.92419 5.28267C9.90763 5.7142 9.97386 15.5235 9.96144 16.2239C9.93517 16.4378 9.96106 16.6548 10.037 16.8572C10.113 17.0596 10.2368 17.2418 10.3986 17.389C10.5604 17.5362 10.7556 17.6443 10.9683 17.7046C11.181 17.7648 11.4054 17.7756 11.6232 17.7359C12.053 17.6489 12.4611 17.481 12.8245 17.2416C13.535 16.873 14.2195 16.4591 14.8737 16.0025C15.8673 15.3391 20.0717 11.4433 20.6943 11.0246C20.8062 10.9579 20.9006 10.8666 20.9697 10.758C21.0388 10.6495 21.0808 10.5267 21.0924 10.3995C21.1039 10.2723 21.0846 10.1442 21.036 10.0256C20.9874 9.90695 20.9109 9.80103 20.8127 9.71633" fill="white"/>
</svg>
